# Blender v2.93.1 OBJ File: 'coin.blend'
# www.blender.org
mtllib coin.mtl
o Circle
v 1.000000 -0.000000 -6.000000
v 1.000000 1.170542 -5.884711
v 1.000000 2.296101 -5.543277
v 1.000000 3.333421 -4.988818
v 1.000000 4.242640 -4.242640
v 1.000000 4.988818 -3.333421
v 1.000000 5.543277 -2.296101
v 1.000000 5.884711 -1.170542
v 0.999999 6.000000 0.000000
v 1.000000 5.884711 1.170542
v 1.000000 5.543277 2.296100
v 1.000000 4.988818 3.333421
v 1.000000 4.242640 4.242640
v 1.000000 3.333421 4.988818
v 1.000000 2.296101 5.543277
v 1.000000 1.170542 5.884712
v 1.000000 -0.000001 6.000000
v 1.000000 -1.170542 5.884712
v 1.000000 -2.296101 5.543277
v 1.000000 -3.333422 4.988817
v 1.000000 -4.242640 4.242641
v 1.000000 -4.988817 3.333423
v 1.000000 -5.543277 2.296101
v 1.000000 -5.884711 1.170542
v 1.000000 -6.000000 -0.000000
v 1.000000 -5.884711 -1.170543
v 1.000000 -5.543277 -2.296102
v 1.000000 -4.988818 -3.333420
v 1.000000 -4.242641 -4.242640
v 1.000000 -3.333422 -4.988818
v 1.000000 -2.296101 -5.543277
v 1.000000 -1.170542 -5.884712
v -1.000000 -0.000000 -6.000000
v -1.000000 1.170542 -5.884711
v -1.000000 2.296101 -5.543277
v -1.000000 3.333421 -4.988818
v -1.000000 4.242640 -4.242640
v -1.000000 4.988818 -3.333421
v -1.000000 5.543277 -2.296101
v -1.000000 5.884711 -1.170542
v -1.000001 6.000000 0.000000
v -1.000000 5.884711 1.170542
v -1.000000 5.543277 2.296100
v -1.000000 4.988818 3.333421
v -1.000000 4.242640 4.242640
v -1.000000 3.333421 4.988818
v -1.000000 2.296101 5.543277
v -1.000000 1.170542 5.884712
v -1.000000 -0.000001 6.000000
v -1.000000 -1.170542 5.884712
v -1.000000 -2.296101 5.543277
v -1.000000 -3.333422 4.988817
v -1.000000 -4.242640 4.242641
v -1.000000 -4.988817 3.333423
v -1.000000 -5.543277 2.296101
v -1.000000 -5.884711 1.170542
v -1.000000 -6.000000 -0.000000
v -1.000000 -5.884711 -1.170543
v -1.000000 -5.543277 -2.296102
v -1.000000 -4.988818 -3.333420
v -1.000000 -4.242641 -4.242640
v -1.000000 -3.333422 -4.988818
v -1.000000 -2.296101 -5.543277
v -1.000000 -1.170542 -5.884712
vt 0.500000 1.000000
vt 0.402456 0.990393
vt 0.308659 0.961940
vt 0.222215 0.915735
vt 0.146447 0.853554
vt 0.084266 0.777786
vt 0.038060 0.691342
vt 0.009607 0.597546
vt 0.000000 0.500000
vt 0.009607 0.402455
vt 0.038060 0.308659
vt 0.084265 0.222215
vt 0.146446 0.146447
vt 0.222215 0.084265
vt 0.308658 0.038060
vt 0.402455 0.009607
vt 0.500000 0.000000
vt 0.597545 0.009607
vt 0.691342 0.038060
vt 0.777785 0.084265
vt 0.853553 0.146447
vt 0.915735 0.222215
vt 0.961940 0.308658
vt 0.990393 0.402455
vt 1.000000 0.500000
vt 0.990393 0.597545
vt 0.961940 0.691342
vt 0.915735 0.777785
vt 0.853553 0.853553
vt 0.777785 0.915735
vt 0.691342 0.961940
vt 0.597545 0.990393
vt 0.500000 1.000000
vt 0.402456 0.990393
vt 0.308659 0.961940
vt 0.222215 0.915735
vt 0.146447 0.853554
vt 0.084266 0.777786
vt 0.038060 0.691342
vt 0.009607 0.597546
vt 0.000000 0.500000
vt 0.009607 0.402455
vt 0.038060 0.308659
vt 0.084265 0.222215
vt 0.146446 0.146447
vt 0.222215 0.084265
vt 0.308658 0.038060
vt 0.402455 0.009607
vt 0.500000 0.000000
vt 0.597545 0.009607
vt 0.691342 0.038060
vt 0.777785 0.084265
vt 0.853553 0.146447
vt 0.915735 0.222215
vt 0.961940 0.308658
vt 0.990393 0.402455
vt 1.000000 0.500000
vt 0.990393 0.597545
vt 0.961940 0.691342
vt 0.915735 0.777785
vt 0.853553 0.853553
vt 0.777785 0.915735
vt 0.691342 0.961940
vt 0.597545 0.990393
vt 0.031250 0.843750
vt 0.031250 0.968750
vt 0.156250 0.968750
vt 0.156250 0.843750
vt 0.031250 0.843750
vt 0.031250 0.968750
vt 0.156250 0.968750
vt 0.156250 0.843750
vt 0.031250 0.843750
vt 0.031250 0.968750
vt 0.156250 0.968750
vt 0.156250 0.843750
vt 0.031250 0.843750
vt 0.031250 0.968750
vt 0.156250 0.968750
vt 0.156250 0.843750
vt 0.031250 0.843750
vt 0.031250 0.968750
vt 0.156250 0.968750
vt 0.156250 0.843750
vt 0.031250 0.843750
vt 0.031250 0.968750
vt 0.156250 0.968750
vt 0.156250 0.843750
vt 0.031250 0.843750
vt 0.031250 0.968750
vt 0.156250 0.968750
vt 0.156250 0.843750
vt 0.031250 0.843750
vt 0.031250 0.968750
vt 0.156250 0.968750
vt 0.156250 0.843750
vt 0.031250 0.843750
vt 0.031250 0.968750
vt 0.156250 0.968750
vt 0.156250 0.843750
vt 0.031250 0.843750
vt 0.031250 0.968750
vt 0.156250 0.968750
vt 0.156250 0.843750
vt 0.031250 0.843750
vt 0.031250 0.968750
vt 0.156250 0.968750
vt 0.156250 0.843750
vt 0.031250 0.843750
vt 0.031250 0.968750
vt 0.156250 0.968750
vt 0.156250 0.843750
vt 0.031250 0.843750
vt 0.031250 0.968750
vt 0.156250 0.968750
vt 0.156250 0.843750
vt 0.031250 0.843750
vt 0.031250 0.968750
vt 0.156250 0.968750
vt 0.156250 0.843750
vt 0.031250 0.843750
vt 0.031250 0.968750
vt 0.156250 0.968750
vt 0.156250 0.843750
vt 0.031250 0.843750
vt 0.031250 0.968750
vt 0.156250 0.968750
vt 0.156250 0.843750
vt 0.031250 0.843750
vt 0.031250 0.968750
vt 0.156250 0.968750
vt 0.156250 0.843750
vt 0.031250 0.843750
vt 0.031250 0.968750
vt 0.156250 0.968750
vt 0.156250 0.843750
vt 0.031250 0.843750
vt 0.031250 0.968750
vt 0.156250 0.968750
vt 0.156250 0.843750
vt 0.031250 0.843750
vt 0.031250 0.968750
vt 0.156250 0.968750
vt 0.156250 0.843750
vt 0.031250 0.843750
vt 0.031250 0.968750
vt 0.156250 0.968750
vt 0.156250 0.843750
vt 0.031250 0.843750
vt 0.031250 0.968750
vt 0.156250 0.968750
vt 0.156250 0.843750
vt 0.031250 0.843750
vt 0.031250 0.968750
vt 0.156250 0.968750
vt 0.156250 0.843750
vt 0.031250 0.843750
vt 0.031250 0.968750
vt 0.156250 0.968750
vt 0.156250 0.843750
vt 0.031250 0.843750
vt 0.031250 0.968750
vt 0.156250 0.968750
vt 0.156250 0.843750
vt 0.031250 0.843750
vt 0.031250 0.968750
vt 0.156250 0.968750
vt 0.156250 0.843750
vt 0.031250 0.843750
vt 0.031250 0.968750
vt 0.156250 0.968750
vt 0.156250 0.843750
vt 0.031250 0.843750
vt 0.031250 0.968750
vt 0.156250 0.968750
vt 0.156250 0.843750
vt 0.031250 0.843750
vt 0.031250 0.968750
vt 0.156250 0.968750
vt 0.156250 0.843750
vt 0.031250 0.843750
vt 0.031250 0.968750
vt 0.156250 0.968750
vt 0.156250 0.843750
vt 0.031250 0.843750
vt 0.031250 0.968750
vt 0.156250 0.968750
vt 0.156250 0.843750
vt 0.031250 0.843750
vt 0.031250 0.968750
vt 0.156250 0.968750
vt 0.156250 0.843750
vn 0.6857 0.1420 -0.7139
vn 0.6857 0.2785 -0.6725
vn 0.6857 0.4044 -0.6052
vn 0.6857 0.5147 -0.5147
vn 0.6857 0.6052 -0.4044
vn 0.6857 0.6725 -0.2785
vn 0.6857 0.7139 -0.1420
vn 0.6857 0.7279 0.0000
vn 0.6857 0.7139 0.1420
vn 0.6857 0.6725 0.2785
vn 0.6857 0.6052 0.4044
vn 0.6857 0.5147 0.5147
vn 0.6857 0.4044 0.6052
vn 0.6857 0.2785 0.6725
vn 0.6857 0.1420 0.7139
vn 0.6857 0.0000 0.7279
vn 0.6857 -0.1420 0.7139
vn 0.6857 -0.2785 0.6725
vn 0.6857 -0.4044 0.6052
vn 0.6857 -0.5147 0.5147
vn 0.6857 -0.6052 0.4044
vn 0.6857 -0.6725 0.2785
vn 0.6857 -0.7139 0.1420
vn 0.6857 -0.7279 0.0000
vn 0.6857 -0.7139 -0.1420
vn 0.6857 -0.6725 -0.2785
vn 0.6857 -0.6052 -0.4044
vn 0.6857 -0.5147 -0.5147
vn 0.6857 -0.4044 -0.6052
vn 0.6857 -0.2785 -0.6725
vn 0.6857 -0.1420 -0.7139
vn 0.6857 0.0000 -0.7279
vn -0.6857 0.1420 -0.7139
vn -0.6857 0.0000 -0.7279
vn -0.6857 -0.1420 -0.7139
vn -0.6857 -0.2785 -0.6725
vn -0.6857 -0.4044 -0.6052
vn -0.6857 -0.5147 -0.5147
vn -0.6857 -0.6052 -0.4044
vn -0.6857 -0.6725 -0.2785
vn -0.6857 -0.7139 -0.1420
vn -0.6857 -0.7279 0.0000
vn -0.6857 -0.7139 0.1420
vn -0.6857 -0.6725 0.2785
vn -0.6857 -0.6052 0.4044
vn -0.6857 -0.5147 0.5147
vn -0.6857 -0.4044 0.6052
vn -0.6857 -0.2785 0.6725
vn -0.6857 -0.1420 0.7139
vn -0.6857 0.0000 0.7279
vn -0.6857 0.1420 0.7139
vn -0.6857 0.2785 0.6725
vn -0.6857 0.4044 0.6052
vn -0.6857 0.5147 0.5147
vn -0.6857 0.6052 0.4044
vn -0.6857 0.6725 0.2785
vn -0.6857 0.7139 0.1420
vn -0.6857 0.7279 0.0000
vn -0.6857 0.7139 -0.1420
vn -0.6857 0.6725 -0.2785
vn -0.6857 0.6052 -0.4044
vn -0.6857 0.5147 -0.5147
vn -0.6857 0.4044 -0.6052
vn -0.6857 0.2785 -0.6725
usemtl coin
s 1
f 2/1/1 3/2/2 4/3/3 5/4/4 6/5/5 7/6/6 8/7/7 9/8/8 10/9/9 11/10/10 12/11/11 13/12/12 14/13/13 15/14/14 16/15/15 17/16/16 18/17/17 19/18/18 20/19/19 21/20/20 22/21/21 23/22/22 24/23/23 25/24/24 26/25/25 27/26/26 28/27/27 29/28/28 30/29/29 31/30/30 32/31/31 1/32/32
f 34/33/33 33/34/34 64/35/35 63/36/36 62/37/37 61/38/38 60/39/39 59/40/40 58/41/41 57/42/42 56/43/43 55/44/44 54/45/45 53/46/46 52/47/47 51/48/48 50/49/49 49/50/50 48/51/51 47/52/52 46/53/53 45/54/54 44/55/55 43/56/56 42/57/57 41/58/58 40/59/59 39/60/60 38/61/61 37/62/62 36/63/63 35/64/64
f 17/65/16 49/66/50 50/67/49 18/68/17
f 4/69/3 36/70/63 37/71/62 5/72/4
f 31/73/30 63/74/36 64/75/35 32/76/31
f 18/77/17 50/78/49 51/79/48 19/80/18
f 5/81/4 37/82/62 38/83/61 6/84/5
f 32/85/31 64/86/35 33/87/34 1/88/32
f 19/89/18 51/90/48 52/91/47 20/92/19
f 6/93/5 38/94/61 39/95/60 7/96/6
f 20/97/19 52/98/47 53/99/46 21/100/20
f 7/101/6 39/102/60 40/103/59 8/104/7
f 21/105/20 53/106/46 54/107/45 22/108/21
f 8/109/7 40/110/59 41/111/58 9/112/8
f 22/113/21 54/114/45 55/115/44 23/116/22
f 9/117/8 41/118/58 42/119/57 10/120/9
f 23/121/22 55/122/44 56/123/43 24/124/23
f 10/125/9 42/126/57 43/127/56 11/128/10
f 24/129/23 56/130/43 57/131/42 25/132/24
f 11/133/10 43/134/56 44/135/55 12/136/11
f 25/137/24 57/138/42 58/139/41 26/140/25
f 12/141/11 44/142/55 45/143/54 13/144/12
f 26/145/25 58/146/41 59/147/40 27/148/26
f 13/149/12 45/150/54 46/151/53 14/152/13
f 27/153/26 59/154/40 60/155/39 28/156/27
f 14/157/13 46/158/53 47/159/52 15/160/14
f 1/161/32 33/162/34 34/163/33 2/164/1
f 28/165/27 60/166/39 61/167/38 29/168/28
f 15/169/14 47/170/52 48/171/51 16/172/15
f 2/173/1 34/174/33 35/175/64 3/176/2
f 29/177/28 61/178/38 62/179/37 30/180/29
f 16/181/15 48/182/51 49/183/50 17/184/16
f 3/185/2 35/186/64 36/187/63 4/188/3
f 30/189/29 62/190/37 63/191/36 31/192/30
